<svg width="43" height="42" viewBox="0 0 43 42" fill="none" xmlns="http://www.w3.org/2000/svg">
<path d="M10.3975 21.6172C16.1393 21.6174 20.7938 26.1804 20.7939 31.8086C20.7939 37.4369 16.1394 41.9998 10.3975 42C4.65532 42 0 37.437 0 31.8086C0.00012672 26.1803 4.6554 21.6172 10.3975 21.6172ZM32.4268 21.6172C38.1687 21.6173 42.8231 26.1804 42.8232 31.8086C42.8232 37.4369 38.1688 41.9998 32.4268 42C26.6846 42 22.0293 37.437 22.0293 31.8086C22.0294 26.1803 26.6847 21.6172 32.4268 21.6172ZM10.3975 0C16.1394 0.000213188 20.7939 4.56311 20.7939 10.1914C20.7938 15.8196 16.1393 20.3826 10.3975 20.3828C4.6554 20.3828 0.000126723 15.8197 0 10.1914C0 4.56297 4.65532 0 10.3975 0ZM32.4268 0C38.1686 0.000151023 42.8231 4.51656 42.8232 10.0879C42.8232 15.6594 38.1688 20.1766 32.4268 20.1768C26.6846 20.1768 22.0293 15.6595 22.0293 10.0879C22.0295 4.51647 26.6847 0 32.4268 0Z" fill="#FCC100"/>
</svg>
